<svg xmlns="http://www.w3.org/2000/svg" width="672" height="128" viewBox="0 0 336 64" role="img" aria-label="Vero expression set">
  <title>Surevo — Vero expression system: idle, talking, wink, win, thinking</title>
  <g transform="translate(0 0)">
    <rect x="6" y="8" width="52" height="38" rx="14" fill="#0E9F6E"/><path d="M18 46 L18 57 L30 46 Z" fill="#0E9F6E"/>
    <circle cx="25" cy="25" r="3" fill="#fff"/><path d="M35 25 L38.3 28.3 L45 20" fill="none" stroke="#fff" stroke-width="3.2" stroke-linecap="round" stroke-linejoin="round"/><path d="M25 35 q7 5.5 14 0" fill="none" stroke="#fff" stroke-width="3" stroke-linecap="round"/>
  </g>
  <g transform="translate(68 0)">
    <rect x="6" y="8" width="52" height="38" rx="14" fill="#0E9F6E"/><path d="M18 46 L18 57 L30 46 Z" fill="#0E9F6E"/>
    <circle cx="25" cy="24" r="3" fill="#fff"/><path d="M35 24 L38.3 27.3 L45 19" fill="none" stroke="#fff" stroke-width="3.2" stroke-linecap="round" stroke-linejoin="round"/><ellipse cx="32" cy="36" rx="4" ry="3.2" fill="#fff"/><path d="M50 22 q3 2 0 4" fill="none" stroke="#9FE6CC" stroke-width="2" stroke-linecap="round"/><path d="M53 20 q5 3 0 8" fill="none" stroke="#9FE6CC" stroke-width="2" stroke-linecap="round"/>
  </g>
  <g transform="translate(136 0)">
    <rect x="6" y="8" width="52" height="38" rx="14" fill="#0E9F6E"/><path d="M18 46 L18 57 L30 46 Z" fill="#0E9F6E"/>
    <path d="M21 25 q4 -4 8 0" fill="none" stroke="#fff" stroke-width="3.2" stroke-linecap="round"/><path d="M35 25 L38.3 28.3 L45 20" fill="none" stroke="#fff" stroke-width="3.2" stroke-linecap="round" stroke-linejoin="round"/><path d="M25 35 q7 6 14 0" fill="none" stroke="#fff" stroke-width="3" stroke-linecap="round"/>
  </g>
  <g transform="translate(204 0)">
    <rect x="6" y="8" width="52" height="38" rx="14" fill="#0E9F6E"/><path d="M18 46 L18 57 L30 46 Z" fill="#0E9F6E"/>
    <path d="M21 26 q4 -5 8 0" fill="none" stroke="#fff" stroke-width="3.2" stroke-linecap="round"/><path d="M35 26 q4 -5 8 0" fill="none" stroke="#fff" stroke-width="3.2" stroke-linecap="round"/><path d="M23 34 q9 9 18 0" fill="none" stroke="#fff" stroke-width="3" stroke-linecap="round"/>
  </g>
  <g transform="translate(272 0)">
    <rect x="6" y="8" width="52" height="38" rx="14" fill="#0E9F6E"/><path d="M18 46 L18 57 L30 46 Z" fill="#0E9F6E"/>
    <circle cx="24" cy="24" r="3" fill="#fff"/><circle cx="40" cy="24" r="3" fill="#fff"/><path d="M25 37 h14" stroke="#fff" stroke-width="3" stroke-linecap="round"/><circle cx="47" cy="14" r="1.7" fill="#9FE6CC"/><circle cx="52" cy="11" r="1.2" fill="#9FE6CC"/>
  </g>
</svg>
