<svg width="120" height="50" viewBox="0 0 120 50" fill="none" xmlns="http://www.w3.org/2000/svg">
<path d="M116.741 13.8226C114.598 11.4027 111.457 10.123 107.634 10.123C103.986 10.123 100.461 11.5506 98.1336 13.8661C98.1248 13.6572 98.0986 13.457 98.0548 13.2481C97.9761 12.543 97.6699 11.9424 97.1625 11.4984C96.3926 10.6453 95.2904 10.1753 94.0568 10.1753H93.8556C92.0185 10.1753 90.26 11.2286 89.3852 12.8303C89.0615 13.3526 88.8603 13.9097 88.7816 14.4842L84.7486 45.7085C84.6086 46.814 84.9585 47.8847 85.6934 48.6247C86.4632 49.5126 87.583 50 88.8428 50H89.044C91.5023 50 93.7506 48.085 94.0568 45.7259L94.713 40.6423C94.748 40.355 94.7567 40.0591 94.7305 39.7718L95.0979 36.9427C96.7776 39.3888 99.962 40.886 103.776 40.886C112.105 40.886 118.255 34.8797 119.453 25.5829C120.109 20.6211 119.165 16.5559 116.741 13.8226ZM110.294 25.4349C109.664 30.3096 106.471 33.4695 102.167 33.4695C100.286 33.4695 98.746 32.8514 97.7137 31.685C96.4801 30.2922 96.0077 28.1856 96.3402 25.5916C96.9875 20.6037 100.093 17.5135 104.459 17.5135C106.34 17.5135 107.879 18.1315 108.912 19.298C110.145 20.6995 110.626 22.8234 110.294 25.4349Z" fill="#5C64FF"/>
<path d="M31.8385 2.54109C30.9374 0.277823 28.1291 -0.644892 25.5659 0.478035C23.8599 1.22665 22.6964 2.69778 22.3727 4.27336C22.2502 4.64766 22.1715 5.03938 22.154 5.4224C22.154 5.46592 22.1453 5.51815 22.1453 5.56168C22.1365 5.6139 22.1365 5.65743 22.1278 5.70095C22.119 5.74448 22.119 5.79671 22.119 5.84023C22.1103 5.88376 22.1103 5.93598 22.1103 5.97951C22.1015 6.02303 22.1015 6.07526 22.1015 6.11879C22.0928 6.16231 22.0928 6.21454 22.0928 6.25806C22.084 6.3277 22.084 6.39734 22.0753 6.46698C22.0665 6.55403 22.0578 6.64108 22.0578 6.72813C22.049 6.80647 22.0403 6.88482 22.0315 6.97186C22.0315 7.01539 22.0228 7.06762 22.0228 7.11114C22.0228 7.15467 22.014 7.20689 22.0053 7.25042C21.9965 7.29394 21.9965 7.34617 21.9878 7.3897C21.979 7.43322 21.979 7.48545 21.9703 7.52897C21.9615 7.5725 21.9615 7.62473 21.9528 7.66825C21.944 7.71178 21.944 7.76401 21.9353 7.80753C21.9265 7.85106 21.9265 7.90328 21.9178 7.94681C21.9091 7.99033 21.9091 8.04256 21.9003 8.08609C21.8916 8.12961 21.8916 8.18184 21.8828 8.22536C21.8741 8.26889 21.8741 8.32112 21.8653 8.36464C21.8828 8.42558 21.8828 8.4691 21.8741 8.52133C21.8653 8.56485 21.8653 8.61708 21.8566 8.66061C21.8478 8.73025 21.8391 8.80859 21.8303 8.87823C21.8216 8.96528 21.8041 9.05233 21.8041 9.13937C21.7953 9.1916 21.7866 9.24383 21.7866 9.30477C21.7866 9.31347 21.7866 9.32218 21.7866 9.33959C21.7778 9.38311 21.7691 9.43534 21.7691 9.47886C21.7603 9.52239 21.7516 9.57462 21.7516 9.61814C21.7428 9.66167 21.7428 9.7139 21.7341 9.75742C21.7253 9.80094 21.7253 9.85317 21.7166 9.8967C21.7078 9.94022 21.7078 9.99245 21.6991 10.036C21.6903 10.0795 21.6903 10.1317 21.6816 10.1753C21.6728 10.2188 21.6728 10.271 21.6641 10.3145C21.6554 10.3581 21.6554 10.4103 21.6466 10.4538C21.6291 10.5322 21.6204 10.6192 21.6116 10.6975C21.5941 10.7846 21.5854 10.8716 21.5766 10.9587C21.5679 11.0283 21.5504 11.098 21.5416 11.1676C21.5329 11.2111 21.5241 11.2634 21.5154 11.3069C21.4979 11.3939 21.4979 11.4897 21.4891 11.5767C21.4804 11.6377 21.4716 11.6899 21.4716 11.7508C21.4716 11.7944 21.4629 11.8292 21.4629 11.8727C21.4629 11.951 21.4716 12.0294 21.4716 12.1077C21.4716 12.1426 21.4629 12.1774 21.4629 12.2035C21.4279 14.5016 23.2913 16.2077 25.7146 16.1816C25.8808 16.1816 26.0558 16.1816 26.222 16.1642C26.6682 16.1207 27.0881 16.0162 27.4905 15.8595C28.7765 15.3982 29.8876 14.458 30.5087 13.2394C30.7799 12.7171 30.9024 12.1774 31.0074 11.6029C31.0773 11.1937 31.1473 10.7846 31.1823 10.3755C31.1911 10.3145 31.1998 10.2536 31.1998 10.184C31.2086 10.123 31.2173 10.0621 31.2173 9.99245C31.2261 9.93152 31.2348 9.87929 31.2348 9.81835C31.2436 9.77483 31.2436 9.73131 31.2523 9.68778C31.2611 9.63555 31.2698 9.58332 31.2698 9.53109C31.2786 9.47016 31.2873 9.40923 31.2961 9.33959C31.3048 9.27865 31.3135 9.21772 31.3223 9.14808C31.331 9.08715 31.3398 9.02621 31.3485 8.96528C31.3485 8.93916 31.3573 8.92175 31.3573 8.89564C31.3573 8.86952 31.366 8.85211 31.366 8.826C31.3748 8.76507 31.3835 8.70413 31.3923 8.6432C31.401 8.58226 31.4098 8.52133 31.4185 8.45169C31.4273 8.39076 31.436 8.32982 31.4448 8.26018C31.4535 8.19925 31.4623 8.13832 31.471 8.07738C31.4798 8.05127 31.4885 7.99033 31.4973 7.92069C31.506 7.85976 31.5148 7.79883 31.5235 7.72919C31.5323 7.66825 31.5498 7.60732 31.5498 7.53768C31.5585 7.49416 31.5673 7.45063 31.576 7.3984C31.5848 7.33747 31.5935 7.28524 31.6022 7.2243C31.611 7.16337 31.6197 7.10244 31.6372 7.0415C31.646 6.98057 31.6547 6.91963 31.6722 6.8587C31.681 6.79777 31.6985 6.73683 31.7072 6.6759C31.716 6.61496 31.7335 6.55403 31.7422 6.4931C31.751 6.43216 31.7685 6.37123 31.7772 6.31029C31.786 6.24936 31.8035 6.18843 31.8122 6.11879C31.821 6.05785 31.8385 6.00562 31.8472 5.94469C31.856 5.90117 31.8647 5.85764 31.8734 5.81412C31.8909 5.75318 31.8997 5.69225 31.9084 5.63131C31.9259 5.57038 31.9347 5.50945 31.9434 5.44851C31.9609 5.38758 31.9697 5.32664 31.9784 5.26571C31.9872 5.20478 32.0047 5.14384 32.0134 5.08291C32.0222 5.02197 32.0397 4.96104 32.0484 4.90011C32.1884 4.09926 32.1359 3.29841 31.8385 2.54109Z" fill="#5C64FF"/>
<path d="M31.5762 4.12556C30.6751 1.8623 27.8669 0.93958 25.3036 2.06251C23.5977 2.81113 22.4341 4.28225 22.1104 5.85783C21.988 6.23214 21.9092 6.62386 21.8917 7.00687C21.8917 7.0504 21.883 7.10262 21.883 7.14615C21.8742 7.18967 21.8742 7.2332 21.8742 7.28543C21.8655 7.32895 21.8655 7.38118 21.8655 7.4247C21.8567 7.46823 21.8567 7.52046 21.8567 7.56398C21.848 7.60751 21.848 7.65974 21.848 7.70326C21.8392 7.74678 21.8392 7.79901 21.8392 7.84254C21.8305 7.91218 21.8305 7.98182 21.8217 8.05145C21.813 8.1385 21.8042 8.22555 21.8042 8.3126C21.7955 8.39094 21.7867 8.46929 21.778 8.55634C21.778 8.59986 21.7692 8.65209 21.7692 8.69561C21.7692 8.73914 21.7605 8.79137 21.7517 8.83489C21.743 8.87842 21.743 8.93065 21.7343 8.97417C21.7255 9.01769 21.7255 9.06992 21.7168 9.11345C21.708 9.15697 21.708 9.2092 21.6993 9.25273C21.6905 9.29625 21.6905 9.34848 21.6818 9.392C21.673 9.43553 21.673 9.48776 21.6643 9.53128C21.6555 9.5748 21.6555 9.62703 21.6468 9.67056C21.638 9.71408 21.638 9.76631 21.6293 9.80984C21.6205 9.85336 21.6205 9.90559 21.6118 9.94911C21.603 9.99264 21.603 10.0449 21.5943 10.0884C21.5855 10.1319 21.5855 10.1841 21.5768 10.2277C21.568 10.2973 21.5593 10.3757 21.5505 10.4453C21.5418 10.5323 21.5243 10.6194 21.5243 10.7064C21.5155 10.7587 21.5068 10.8109 21.5068 10.8718C21.5068 10.8805 21.5068 10.8892 21.5068 10.9066C21.498 10.9502 21.4893 11.0024 21.4893 11.0459C21.4805 11.0895 21.4718 11.1417 21.4718 11.1852C21.4631 11.2287 21.4631 11.281 21.4543 11.3245C21.4456 11.368 21.4456 11.4202 21.4368 11.4638C21.4281 11.5073 21.4281 11.5595 21.4193 11.603C21.4106 11.6466 21.4106 11.6988 21.4018 11.7423C21.3931 11.7858 21.3931 11.8381 21.3843 11.8816C21.3756 11.9251 21.3756 11.9773 21.3668 12.0209C21.3493 12.0992 21.3406 12.1863 21.3318 12.2646C21.3143 12.3517 21.3056 12.4387 21.2968 12.5258C21.2881 12.5954 21.2706 12.665 21.2618 12.7347C21.2531 12.7782 21.2443 12.8304 21.2356 12.8739C21.2181 12.961 21.2181 13.0568 21.2093 13.1438C21.2006 13.2047 21.1919 13.257 21.1919 13.3179C21.1919 13.3614 21.1831 13.3962 21.1831 13.4398C21.1831 13.5181 21.1919 13.5965 21.1919 13.6748C21.1919 13.7096 21.1831 13.7444 21.1831 13.7705C21.1481 16.0686 23.0115 17.7748 25.4348 17.7487C25.601 17.7487 25.776 17.7487 25.9422 17.7313C26.3884 17.6877 26.8083 17.5833 27.2107 17.4266C28.4967 16.9652 29.6078 16.0251 30.2289 14.8064C30.5001 14.2841 30.6226 13.7444 30.7276 13.1699C30.7976 12.7608 30.8675 12.3517 30.9025 11.9425C30.9113 11.8816 30.92 11.8207 30.92 11.751C30.9288 11.6901 30.9375 11.6292 30.9375 11.5595C30.9463 11.4986 30.955 11.4464 30.955 11.3854C30.9638 11.3419 30.9638 11.2984 30.9725 11.2548C30.9813 11.2026 30.99 11.1504 30.99 11.0982C30.9988 11.0372 31.0075 10.9763 31.0163 10.9066C31.025 10.8457 31.0338 10.7848 31.0425 10.7151C31.0513 10.6542 31.06 10.5933 31.0688 10.5323C31.0688 10.5062 31.0775 10.4888 31.0775 10.4627C31.0775 10.4366 31.0863 10.4192 31.0863 10.3931C31.095 10.3321 31.1038 10.2712 31.1125 10.2103C31.1213 10.1493 31.13 10.0884 31.1387 10.0188C31.1475 9.95782 31.1562 9.89688 31.165 9.82725C31.1737 9.76631 31.1825 9.70538 31.1912 9.64444C31.2 9.58351 31.2087 9.52258 31.2175 9.45294C31.2262 9.392 31.235 9.33107 31.2437 9.26143C31.2525 9.2005 31.27 9.13956 31.27 9.06992C31.2787 9.0264 31.2875 8.98287 31.2962 8.93064C31.305 8.86971 31.3137 8.81748 31.3225 8.75655C31.3312 8.69561 31.34 8.63468 31.3575 8.57375C31.3662 8.51281 31.375 8.45188 31.3925 8.39094C31.4012 8.33001 31.4187 8.26908 31.4274 8.20814C31.4362 8.14721 31.4537 8.08627 31.4624 8.02534C31.4887 8.00793 31.4974 7.947 31.5062 7.88606C31.5149 7.82513 31.5324 7.76419 31.5412 7.69455C31.5499 7.63362 31.5674 7.58139 31.5762 7.52046C31.5849 7.47693 31.5937 7.43341 31.6024 7.38988C31.6199 7.32895 31.6287 7.26802 31.6374 7.20708C31.6549 7.14615 31.6636 7.08521 31.6724 7.02428C31.6899 6.96335 31.6986 6.90241 31.7074 6.84148C31.7161 6.78054 31.7336 6.71961 31.7424 6.65868C31.7511 6.59774 31.7686 6.53681 31.7774 6.47587C31.9261 5.67503 31.8736 4.87418 31.5762 4.12556Z" fill="#5C64FF"/>
<path d="M53.4908 1.43549C52.6859 0.521484 51.5136 0.0166016 50.2014 0.0166016C47.6119 0.0166016 45.2498 2.03613 44.9261 4.50831L43.2464 17.5047H29.2753L28.6192 17.4786H24.9623L24.8749 17.4873C21.3755 17.9573 20.2207 20.4034 19.8445 21.8223L18.0336 35.8197C17.8762 37.0297 18.2173 38.1787 18.996 39.0579C19.8008 39.9719 20.9731 40.4768 22.2853 40.4768C24.8749 40.4768 27.2369 38.4573 27.5606 35.9851L28.8991 25.6263H42.1966L40.8756 35.8284C40.7182 37.0384 41.0593 38.1874 41.8379 39.0666C42.6428 39.9806 43.8151 40.4855 45.1273 40.4855C47.7169 40.4855 50.0789 38.466 50.4026 35.9938L54.4443 4.68241C54.6106 3.46373 54.2694 2.31469 53.4908 1.43549Z" fill="#5C64FF"/>
<path d="M86.1217 12.5082C85.7105 11.5158 84.9232 10.7672 83.8996 10.4103L83.8384 10.3929C81.6426 9.61818 78.9306 10.863 77.802 13.1523L75.5099 17.8182L69.1849 29.8744L65.7293 17.1827C65.7205 17.0521 65.6768 16.939 65.6593 16.878L64.557 12.9434C64.277 11.9337 63.5947 11.1067 62.6498 10.6192C61.5825 10.0708 60.2703 10.0186 59.0543 10.4538L58.9843 10.48C56.6222 11.333 55.1962 13.8139 55.8174 15.9988L56.8409 19.6549L56.8322 19.6462L57.1821 20.8649C57.2259 21.0303 57.2871 21.1956 57.3658 21.3697L62.9823 39.5368L60.6815 44.1417C60.1303 45.2472 60.0603 46.4833 60.4977 47.5366C60.9089 48.5376 61.7225 49.3036 62.7811 49.6693L62.8423 49.6867C63.306 49.8521 63.7959 49.9304 64.277 49.9304C65.9917 49.9304 67.7326 48.9816 68.6425 47.4147C68.7824 47.2145 68.8962 47.0317 69.0012 46.8402L83.1298 21.7702L83.2523 21.5612L83.2348 21.5438L83.2523 21.5525L83.2872 21.5003C83.3135 21.4481 83.3485 21.3959 83.3747 21.3436L85.938 16.1294C86.5066 14.9456 86.5766 13.6224 86.1217 12.5082Z" fill="#5C64FF"/>
<path d="M4.78894 33.2952C3.26672 35.5149 3.76538 38.4137 5.89998 39.7803C8.03458 41.147 11.0003 40.4506 12.5225 38.2396C14.0447 36.0285 13.5373 33.1211 11.4027 31.7544C9.2681 30.3878 6.3024 31.0755 4.78894 33.2952Z" fill="#FFB4A8"/>
<path d="M18.9696 33.2952C17.4474 35.5149 17.9548 38.4137 20.0894 39.7803C22.224 41.147 25.1897 40.4506 26.7119 38.2396C28.2341 36.0285 27.7267 33.1211 25.5921 31.7544C23.4487 30.3878 20.483 31.0755 18.9696 33.2952Z" fill="#5C64FF"/>
<path d="M3.13524 27.4895L7.82437 28.7691C10.0902 29.3871 12.4348 28.064 13.0559 25.8094C13.677 23.5549 12.3473 21.222 10.0814 20.6039L5.38357 19.3243C3.11775 18.7063 0.773182 20.0294 0.152048 22.2839C-0.469086 24.5385 0.869415 26.8714 3.13524 27.4895Z" fill="#FF6B5C"/>
<path d="M7.31682 12.7869L10.3175 17.5136C11.6648 19.6376 14.4992 20.2731 16.6338 18.9325C18.7684 17.592 19.4071 14.7716 18.0598 12.6476L15.0504 7.92087C13.7031 5.79688 10.8687 5.16143 8.73406 6.50198C6.59946 7.85123 5.96083 10.6629 7.31682 12.7869Z" fill="#9ECFFF"/>
</svg>
