<svg xmlns="http://www.w3.org/2000/svg" width="495" height="119" viewBox="0 0 495 119" fill="none"><path d="M209.14 117.72C184.2 120.25 161.6 101.81 159.07 76.8701C156.54 51.9301 174.99 29.3301 199.93 26.8001C201.93 26.6001 203.94 26.5301 205.96 26.5901L205.32 46.89C197.77 46.66 190.19 49.7901 184.99 56.0601C176.04 66.8501 177.54 82.8501 188.33 91.8001C199.12 100.75 215.12 99.2601 224.07 88.4601C229.89 81.4301 231.29 72.1901 228.57 64.1201L247.81 57.6101C248.92 60.8701 249.65 64.24 249.99 67.65C252.52 92.59 234.08 115.19 209.14 117.72Z" fill="#7133D9"></path><path d="M428.56 59.7498C425.27 40.2998 412.88 30.1099 392.8 30.1099C381.2 30.1099 372.57 33.2399 365.99 40.6099C357.2 50.3399 356.26 61.6298 356.26 76.9998V115.42H377.12V71.0398C377.12 56.9198 381.67 49.2399 392.8 49.2399C403.93 49.2399 408.49 57.0799 408.49 71.9799V115.42H429.34V77.3098C429.34 70.4098 429.66 66.4898 428.56 59.7498Z" fill="#7133D9"></path><path d="M494.06 98.35V117.46H483.45C463.38 117.46 450.99 107.26 447.7 87.8199C446.62 81.2199 446.76 70.7 446.76 70.7V1.3999H467.62V32.1399H485.78V50.0199H467.77V75.58C467.77 90.48 472.48 98.3199 483.45 98.3199V98.35H494.06Z" fill="#7133D9"></path><path d="M0 32.1499V115.42H20.85V32.1499H0Z" fill="#7133D9"></path><path d="M98.44 97.7001C76.17 97.7001 59.55 82.1701 59.55 58.9601C59.55 35.7501 76.8 20.54 97.97 20.54C111.14 20.54 122.28 26.19 132.47 37.01L147.52 22.5801C135.13 8.16008 117.1 0 98.44 0C66.14 0 38.54 23.3701 38.54 58.9601C38.54 94.5501 62.84 118.24 98.13 118.24C119.3 118.24 132.15 111.18 147.05 96.6001L132.47 81.39C121.8 92.05 112.4 97.7001 98.44 97.7001Z" fill="#7133D9"></path><path d="M318.59 32.1499V76.5299C318.59 90.6399 314.04 98.3199 302.91 98.3199C291.78 98.3199 287.23 90.48 287.23 75.59V32.1499H266.37V70.2499C266.37 77.1499 266.06 81.0699 267.16 87.8199C270.45 107.26 282.84 117.46 302.91 117.46C314.52 117.46 323.14 114.32 329.73 106.95C338.51 97.2299 339.45 85.9399 339.45 70.5699V32.1499H318.59Z" fill="#7133D9"></path><path d="M10.4299 24C15.9528 24 20.4299 19.5228 20.4299 14C20.4299 8.47715 15.9528 4 10.4299 4C4.90708 4 0.429932 8.47715 0.429932 14C0.429932 19.5228 4.90708 24 10.4299 24Z" fill="#7133D9"></path><path d="M249.27 45.67L222.8 54.64L215.17 57.2201L215.42 49.3401L216.29 21.2301C223.62 21.4601 230.71 23.92 236.61 28.29C242.5 32.66 246.92 38.72 249.27 45.67Z" fill="#F1CA49"></path></svg>