<svg xmlns="http://www.w3.org/2000/svg" width="261" height="58" fill="none"><path fill="#12284C" d="M50.676 55.006a.312.312 0 0 1-.21-.074.312.312 0 0 1-.075-.21v-6.498c0-.083.025-.149.074-.198a.286.286 0 0 1 .21-.087h2.365c.71 0 1.295.115 1.757.346.462.223.805.557 1.027 1.003.231.445.347 1.002.347 1.67v3.763a.312.312 0 0 1-.074.21c-.05.05-.12.075-.21.075h-5.211Zm.78-.99h3.613V51.02c0-.66-.165-1.172-.495-1.535-.33-.371-.862-.557-1.596-.557h-1.523v5.087Zm6.463-1.881a.312.312 0 0 1-.21-.075.312.312 0 0 1-.075-.21v-3.627c0-.082.025-.148.075-.197a.286.286 0 0 1 .21-.087h.582c.09 0 .16.029.21.087.05.049.074.115.074.197v3.627a.312.312 0 0 1-.074.21c-.05.05-.12.075-.21.075h-.582Zm2.703 5.235a.286.286 0 0 1-.21-.087.268.268 0 0 1-.075-.198v-6.498c0-.082.025-.148.074-.198a.286.286 0 0 1 .21-.086h.545c.091 0 .161.029.21.086.05.05.075.116.075.198v6.498a.268.268 0 0 1-.074.198.262.262 0 0 1-.21.087h-.545Zm2.376-2.253a.218.218 0 0 1-.21-.037c-.058-.041-.087-.103-.087-.185v-.57c0-.074.02-.14.062-.198a.491.491 0 0 1 .21-.136l.47-.186c.33-.132.628-.297.892-.495.272-.206.482-.482.63-.829.158-.346.236-.8.236-1.361 0-.537-.066-.962-.198-1.275a1.21 1.21 0 0 0-.656-.68c-.297-.141-.701-.211-1.213-.211h-2.512a.312.312 0 0 1-.21-.075.312.312 0 0 1-.075-.21v-.445c0-.083.025-.149.074-.198a.286.286 0 0 1 .21-.087h2.674c.76 0 1.357.107 1.795.322.445.214.763.56.953 1.04.198.47.297 1.088.297 1.856 0 .577-.079 1.077-.236 1.497-.156.421-.37.78-.643 1.077a3.714 3.714 0 0 1-.904.743c-.33.19-.676.346-1.04.47l-.52.173Zm7.785.013c-1.032 0-1.8-.269-2.303-.805-.503-.536-.755-1.3-.755-2.29v-3.811c0-.083.025-.149.075-.198a.286.286 0 0 1 .21-.087h2.983c.734 0 1.32.111 1.757.334.438.223.755.553.953.99.207.43.322.961.347 1.597.008.082.012.214.012.396v.544c0 .182-.004.314-.012.396-.017.628-.136 1.164-.359 1.61-.223.437-.573.767-1.052.99-.47.222-1.09.334-1.856.334Zm0-1.015c.783 0 1.336-.161 1.658-.483.322-.33.49-.83.507-1.497.009-.083.013-.207.013-.372v-.482c0-.157-.004-.277-.013-.36-.016-.66-.206-1.154-.569-1.485-.355-.338-.837-.507-1.448-.507h-2.129v3.106c0 .669.165 1.184.495 1.548.33.354.825.532 1.486.532Zm4.49 1.572a.24.24 0 0 1-.235-.025.2.2 0 0 1-.111-.186v-.42c0-.075.016-.145.05-.211a.225.225 0 0 1 .16-.124l2.612-.866c.47-.157.833-.36 1.089-.607.255-.247.433-.536.532-.866.107-.33.16-.689.16-1.077v-3.081c0-.083.025-.149.075-.198a.286.286 0 0 1 .21-.087h.557c.083 0 .149.029.198.087.058.049.087.115.087.197v3.429c0 .478-.111.932-.334 1.361a3.45 3.45 0 0 1-.916 1.114 4.216 4.216 0 0 1-1.411.718l-2.723.842Zm1.621-.978-1.745-6.275a.767.767 0 0 0-.05-.149.404.404 0 0 1-.011-.099c0-.066.024-.123.074-.173a.237.237 0 0 1 .173-.074h.607c.156 0 .251.062.284.185l1.72 6.3-1.052.285Zm6.834.408a.218.218 0 0 1-.21-.037.204.204 0 0 1-.1-.185v-.57c0-.074.021-.14.062-.198a.492.492 0 0 1 .21-.136l.483-.186c.322-.132.615-.297.88-.495.272-.206.482-.482.63-.829.157-.346.235-.8.235-1.361 0-.537-.066-.962-.198-1.275a1.164 1.164 0 0 0-.643-.68c-.297-.141-.706-.211-1.225-.211h-.372a.312.312 0 0 1-.21-.075.312.312 0 0 1-.074-.21v-.445c0-.083.024-.149.074-.198a.286.286 0 0 1 .21-.087h.545c.75 0 1.349.107 1.794.322.446.214.764.56.953 1.04.198.47.297 1.088.297 1.856 0 .577-.078 1.077-.235 1.497-.156.421-.37.78-.643 1.077a3.712 3.712 0 0 1-.904.743 6.31 6.31 0 0 1-1.052.47l-.507.173Zm.025-6.163-1.473-.013a.312.312 0 0 1-.21-.074.268.268 0 0 1-.075-.198v-2.166c0-.082.025-.148.074-.198a.287.287 0 0 1 .21-.087h.52c.083 0 .15.03.199.087.057.05.086.116.086.198v1.436h.693l-.024 1.015Zm12.395 6.052a.312.312 0 0 1-.21-.074.312.312 0 0 1-.075-.21V51.02c0-.66-.165-1.172-.495-1.535-.33-.371-.862-.557-1.596-.557h-2.327a.312.312 0 0 1-.21-.074.312.312 0 0 1-.075-.21v-.422c0-.082.025-.148.075-.197a.286.286 0 0 1 .21-.087h2.389c1.072 0 1.864.26 2.376.78.52.52.78 1.274.78 2.264v3.738a.286.286 0 0 1-.087.21.268.268 0 0 1-.198.075h-.557Zm-4.703 0a.312.312 0 0 1-.21-.074.312.312 0 0 1-.075-.21v-4.135c0-.082.025-.148.075-.198a.286.286 0 0 1 .21-.086h.557c.09 0 .16.029.21.086.05.05.075.116.075.198v4.134a.312.312 0 0 1-.075.21c-.05.05-.12.075-.21.075h-.557Zm7.378 2.364a.286.286 0 0 1-.21-.087.268.268 0 0 1-.074-.198v-6.498c0-.082.024-.148.074-.198a.286.286 0 0 1 .21-.086h.545c.09 0 .16.029.21.086.05.05.074.116.074.198v6.498a.268.268 0 0 1-.074.198.262.262 0 0 1-.21.087h-.545Zm2.377-2.253a.219.219 0 0 1-.211-.037c-.058-.041-.087-.103-.087-.185v-.57c0-.074.021-.14.062-.198a.495.495 0 0 1 .211-.136l.47-.186c.33-.132.627-.297.891-.495.272-.206.483-.482.631-.829.157-.346.236-.8.236-1.361 0-.537-.066-.962-.198-1.275a1.213 1.213 0 0 0-.656-.68c-.297-.141-.702-.211-1.213-.211h-2.513a.312.312 0 0 1-.21-.075.312.312 0 0 1-.074-.21v-.445c0-.083.024-.149.074-.198a.286.286 0 0 1 .21-.087h2.674c.759 0 1.357.107 1.794.322.446.214.763.56.953 1.04.198.47.297 1.088.297 1.856 0 .577-.078 1.077-.235 1.497-.157.421-.371.78-.644 1.077a3.716 3.716 0 0 1-.903.743 5.91 5.91 0 0 1-1.04.47l-.519.173Zm4.999-2.982a.313.313 0 0 1-.21-.075.31.31 0 0 1-.074-.21v-3.627c0-.082.024-.148.074-.197a.287.287 0 0 1 .21-.087h.582a.26.26 0 0 1 .21.087c.05.049.075.115.075.197v3.627a.31.31 0 0 1-.075.21c-.049.05-.119.075-.21.075h-.582Zm3.941 2.982a.219.219 0 0 1-.211-.037.204.204 0 0 1-.099-.185v-.57c0-.074.021-.14.062-.198a.495.495 0 0 1 .211-.136l.482-.186c.322-.132.615-.297.879-.495.272-.206.483-.482.631-.829.157-.346.235-.8.235-1.361 0-.537-.066-.962-.198-1.275a1.162 1.162 0 0 0-.643-.68c-.297-.141-.706-.211-1.225-.211h-.372a.313.313 0 0 1-.21-.075.31.31 0 0 1-.074-.21v-.445c0-.083.024-.149.074-.198a.287.287 0 0 1 .21-.087h.545c.751 0 1.349.107 1.794.322.446.214.764.56.953 1.04.198.47.297 1.088.297 1.856 0 .577-.078 1.077-.235 1.497-.157.421-.371.78-.643 1.077a3.72 3.72 0 0 1-.904.743c-.338.19-.689.346-1.052.47l-.507.173Zm.024-6.163-1.472-.013a.313.313 0 0 1-.211-.074.27.27 0 0 1-.074-.198v-2.166a.27.27 0 0 1 .074-.198.288.288 0 0 1 .211-.087h.519a.25.25 0 0 1 .199.087.25.25 0 0 1 .086.198v1.436h.693l-.025 1.015Zm7.642 6.176c-1.031 0-1.799-.269-2.302-.805-.503-.536-.755-1.3-.755-2.29v-3.811a.27.27 0 0 1 .074-.198.287.287 0 0 1 .211-.087h2.982c.735 0 1.321.111 1.758.334.437.223.755.553.953.99.206.43.322.961.346 1.597.009.082.013.214.013.396v.544c0 .182-.004.314-.013.396-.016.628-.136 1.164-.359 1.61-.222.437-.573.767-1.052.99-.47.222-1.089.334-1.856.334Zm0-1.015c.784 0 1.337-.161 1.658-.483.322-.33.491-.83.508-1.497.008-.083.012-.207.012-.372v-.482c0-.157-.004-.277-.012-.36-.017-.66-.206-1.154-.569-1.485-.355-.338-.838-.507-1.449-.507h-2.128v3.106c0 .669.165 1.184.495 1.548.33.354.825.532 1.485.532Zm7.857-5.186a.31.31 0 0 1-.21-.074.31.31 0 0 1-.075-.21v-.422c0-.082.025-.148.075-.197a.285.285 0 0 1 .21-.087h2.686c.709 0 1.295.115 1.757.346.471.223.821.562 1.052 1.015.231.446.347.999.347 1.659v3.762a.286.286 0 0 1-.087.21.266.266 0 0 1-.198.075h-.557c-.091 0-.161-.025-.21-.074a.31.31 0 0 1-.075-.21V51.02c0-.66-.169-1.172-.507-1.535-.33-.371-.862-.557-1.597-.557h-2.611Zm1.114-.607h.309c.124 0 .215.033.273.1a.248.248 0 0 1 .086.222c-.066.347-.124.66-.173.94-.041.281-.07.562-.087.842a15.99 15.99 0 0 0-.024.929l.024 3.366a.31.31 0 0 1-.074.21.266.266 0 0 1-.198.075l-1.757-.025a.313.313 0 0 1-.211-.074.286.286 0 0 1-.074-.21V54.3a.27.27 0 0 1 .074-.198.287.287 0 0 1 .211-.086l.953.012v-2.624c0-.338.004-.647.012-.928.008-.289.033-.578.074-.866.041-.29.107-.615.198-.978a.563.563 0 0 1 .112-.223c.057-.058.148-.087.272-.087Zm6.561 6.684a.313.313 0 0 1-.21-.074.315.315 0 0 1-.074-.21v-6.498a.27.27 0 0 1 .074-.198.287.287 0 0 1 .21-.087h.582c.091 0 .161.029.211.087a.27.27 0 0 1 .074.197v6.498a.315.315 0 0 1-.074.21.286.286 0 0 1-.211.075h-.582Zm2.378 0a.313.313 0 0 1-.211-.074.315.315 0 0 1-.074-.21V54.3a.27.27 0 0 1 .074-.198.287.287 0 0 1 .211-.086h3.49v.755c0 .082-.029.144-.087.185a.35.35 0 0 1-.198.05h-3.205Zm2.735 0a.266.266 0 0 1-.198-.074.551.551 0 0 1-.087-.21l-.235-3.825a8.637 8.637 0 0 0-.099-1.052c-.041-.297-.14-.528-.297-.693-.149-.165-.4-.248-.755-.248h-.507a.313.313 0 0 1-.211-.074.315.315 0 0 1-.074-.21v-.421a.27.27 0 0 1 .074-.198.288.288 0 0 1 .211-.087h.519c.471 0 .85.07 1.139.21.289.133.512.33.668.595.157.264.273.577.347.94.074.355.124.755.148 1.2l.223 3.862a.218.218 0 0 1-.062.21.31.31 0 0 1-.21.075h-.594Zm2.416 0a.31.31 0 0 1-.21-.074.31.31 0 0 1-.075-.21v-6.498c0-.083.025-.149.075-.198a.285.285 0 0 1 .21-.087h.582a.26.26 0 0 1 .21.087c.05.049.074.115.074.197v6.498a.31.31 0 0 1-.074.21c-.049.05-.119.075-.21.075h-.582Zm6.486 0a.313.313 0 0 1-.21-.074.31.31 0 0 1-.074-.21V51.02c0-.66-.165-1.172-.495-1.535-.331-.371-.863-.557-1.597-.557h-1.621a.313.313 0 0 1-.211-.074.315.315 0 0 1-.074-.21v-.422a.27.27 0 0 1 .074-.197.287.287 0 0 1 .211-.087h1.683c.709 0 1.295.111 1.757.334.471.223.821.561 1.052 1.015.231.445.347 1.002.347 1.67v3.763a.286.286 0 0 1-.087.21.266.266 0 0 1-.198.075h-.557Zm2.885-6.077a.313.313 0 0 1-.211-.074.315.315 0 0 1-.074-.21v-.422a.27.27 0 0 1 .074-.197.287.287 0 0 1 .211-.087h2.685c.71 0 1.296.115 1.758.346.47.223.821.562 1.052 1.015.231.446.346.999.346 1.659v3.762a.285.285 0 0 1-.086.21.27.27 0 0 1-.198.075h-.557a.286.286 0 0 1-.211-.074.315.315 0 0 1-.074-.21V51.02c0-.66-.169-1.172-.507-1.535-.33-.371-.862-.557-1.597-.557h-2.611Zm1.114-.607h.309c.124 0 .215.033.272.1a.25.25 0 0 1 .087.222c-.066.347-.124.66-.173.94-.042.281-.07.562-.087.842-.016.273-.025.582-.025.929l.025 3.366a.315.315 0 0 1-.074.21.27.27 0 0 1-.198.075l-1.758-.025a.312.312 0 0 1-.21-.074c-.05-.05-.074-.12-.074-.21V54.3c0-.082.024-.148.074-.198a.287.287 0 0 1 .21-.086l.953.012v-2.624c0-.338.004-.647.013-.928.008-.289.033-.578.074-.866.041-.29.107-.615.198-.978a.575.575 0 0 1 .111-.223c.058-.058.149-.087.273-.087Zm7.279.632v.965c.008.297.045.545.111.743a.529.529 0 0 0 .384.371l.458.124c.066.016.115.062.149.136a.461.461 0 0 1 .061.247v.31c0 .09-.045.157-.136.198a.515.515 0 0 1-.297.037l-.482-.099a1.613 1.613 0 0 1-.681-.347 1.631 1.631 0 0 1-.433-.693 3.656 3.656 0 0 1-.137-1.064v-1.658c0-.083.025-.149.075-.198a.26.26 0 0 1 .21-.087h2.29c.619 0 1.134.124 1.547.371.412.24.726.59.94 1.052.215.454.331 1.003.347 1.646.008.124.012.28.012.47 0 .182-.004.335-.012.459-.016.635-.132 1.184-.347 1.646a2.368 2.368 0 0 1-.94 1.064c-.413.24-.928.359-1.547.359h-2.141a.313.313 0 0 1-.211-.074.315.315 0 0 1-.074-.21v-.446a.27.27 0 0 1 .074-.198.288.288 0 0 1 .211-.087h2.079c.569 0 1.007-.181 1.312-.545.313-.37.487-.887.52-1.547.008-.123.012-.264.012-.42 0-.166-.004-.31-.012-.434-.017-.66-.186-1.171-.508-1.534-.313-.372-.755-.557-1.324-.557h-1.51Zm6.044 6.052a.31.31 0 0 1-.21-.074.31.31 0 0 1-.075-.21v-6.498c0-.083.025-.149.075-.198a.283.283 0 0 1 .21-.087h.582c.09 0 .16.029.21.087.05.049.074.115.074.197v6.498a.31.31 0 0 1-.074.21.286.286 0 0 1-.21.075h-.582Zm5.733-6.077a.313.313 0 0 1-.211-.074.315.315 0 0 1-.074-.21v-.422a.27.27 0 0 1 .074-.197.287.287 0 0 1 .211-.087h2.685c.71 0 1.296.115 1.758.346.47.223.821.562 1.052 1.015.231.446.346.999.346 1.659v3.762a.289.289 0 0 1-.086.21.27.27 0 0 1-.198.075h-.557a.286.286 0 0 1-.211-.074.315.315 0 0 1-.074-.21V51.02c0-.66-.169-1.172-.507-1.535-.33-.371-.863-.557-1.597-.557h-2.611Zm1.113-.607h.31c.124 0 .214.033.272.1a.25.25 0 0 1 .087.222c-.066.347-.124.66-.173.94-.042.281-.071.562-.087.842-.017.273-.025.582-.025.929l.025 3.366a.315.315 0 0 1-.074.21.27.27 0 0 1-.198.075l-1.758-.025a.31.31 0 0 1-.21-.074c-.05-.05-.075-.12-.075-.21V54.3c0-.082.025-.148.075-.198a.285.285 0 0 1 .21-.086l.953.012v-2.624c0-.338.004-.647.013-.928.008-.289.033-.578.074-.866.041-.29.107-.615.198-.978a.575.575 0 0 1 .111-.223c.058-.058.149-.087.272-.087Zm6.562 6.684a.31.31 0 0 1-.21-.074.31.31 0 0 1-.075-.21v-6.498c0-.083.025-.149.075-.198a.283.283 0 0 1 .21-.087h.582c.09 0 .161.029.21.087.05.049.074.115.074.197v6.498a.31.31 0 0 1-.074.21c-.049.05-.12.075-.21.075h-.582Zm2.687-2.871a.313.313 0 0 1-.211-.075.315.315 0 0 1-.074-.21v-3.627a.27.27 0 0 1 .074-.197.287.287 0 0 1 .211-.087h.581c.091 0 .161.029.211.087a.27.27 0 0 1 .074.197v3.627a.315.315 0 0 1-.074.21.286.286 0 0 1-.211.075h-.581Zm5.4 2.995c-1.031 0-1.798-.269-2.302-.805-.503-.536-.755-1.3-.755-2.29v-3.811c0-.083.025-.149.075-.198a.285.285 0 0 1 .21-.087h2.983c.734 0 1.32.111 1.757.334.438.223.755.553.953.99.207.43.322.961.347 1.597.008.082.012.214.012.396v.544c0 .182-.004.314-.012.396-.017.628-.136 1.164-.359 1.61-.223.437-.574.767-1.052.99-.47.222-1.089.334-1.857.334Zm0-1.015c.784 0 1.337-.161 1.659-.483.322-.33.491-.83.507-1.497.009-.083.013-.207.013-.372v-.482c0-.157-.004-.277-.013-.36-.016-.66-.206-1.154-.569-1.485-.355-.338-.838-.507-1.448-.507h-2.129v3.106c0 .669.165 1.184.495 1.548.33.354.825.532 1.485.532Zm4.405.89a.313.313 0 0 1-.21-.073.31.31 0 0 1-.074-.21V54.3c0-.082.024-.148.074-.198a.287.287 0 0 1 .21-.086h3.49v.755c0 .082-.028.144-.086.185a.354.354 0 0 1-.198.05h-3.206Zm2.735 0a.27.27 0 0 1-.198-.073.535.535 0 0 1-.086-.21l-.235-3.825a8.841 8.841 0 0 0-.099-1.052c-.042-.297-.141-.528-.297-.693-.149-.165-.401-.248-.755-.248h-.508a.313.313 0 0 1-.21-.074.31.31 0 0 1-.074-.21v-.421c0-.083.024-.149.074-.198a.287.287 0 0 1 .21-.087h.52c.47 0 .85.07 1.139.21.288.133.511.33.668.595.157.264.272.577.347.94.074.355.123.755.148 1.2l.223 3.862a.22.22 0 0 1-.062.21.313.313 0 0 1-.21.075h-.595Zm2.021 0a.313.313 0 0 1-.211-.073.315.315 0 0 1-.074-.21V54.3a.27.27 0 0 1 .074-.198.287.287 0 0 1 .211-.086h3.49v.755c0 .082-.029.144-.087.185a.35.35 0 0 1-.198.05h-3.205Zm2.735 0a.266.266 0 0 1-.198-.073.551.551 0 0 1-.087-.21l-.235-3.825a8.441 8.441 0 0 0-.099-1.052c-.041-.297-.14-.528-.297-.693-.148-.165-.4-.248-.755-.248h-.507a.313.313 0 0 1-.211-.074.315.315 0 0 1-.074-.21v-.421a.27.27 0 0 1 .074-.198.288.288 0 0 1 .211-.087h.519c.471 0 .85.07 1.139.21.289.133.512.33.668.595.157.264.273.577.347.94.074.355.124.755.148 1.2l.223 3.862a.218.218 0 0 1-.062.21.31.31 0 0 1-.21.075h-.594Zm2.329-2.87a.313.313 0 0 1-.21-.075.315.315 0 0 1-.074-.21v-3.627a.27.27 0 0 1 .074-.197.287.287 0 0 1 .21-.087h.582c.091 0 .161.029.211.087a.27.27 0 0 1 .074.197v3.627a.315.315 0 0 1-.074.21.286.286 0 0 1-.211.075h-.582Zm3.421-3.181v.965c.008.297.045.545.111.743a.529.529 0 0 0 .384.371l.458.124c.066.016.116.062.149.136a.461.461 0 0 1 .061.247v.31c0 .09-.045.157-.136.198a.513.513 0 0 1-.297.037l-.482-.099a1.619 1.619 0 0 1-.681-.347 1.631 1.631 0 0 1-.433-.693 3.659 3.659 0 0 1-.136-1.064v-1.658c0-.083.024-.149.074-.198a.26.26 0 0 1 .21-.087h2.29c.619 0 1.134.124 1.547.371.412.24.726.59.941 1.052.214.454.33 1.003.346 1.646.008.124.012.28.012.47 0 .182-.004.335-.012.459-.016.635-.132 1.184-.346 1.646a2.376 2.376 0 0 1-.941 1.064c-.413.24-.928.359-1.547.359h-2.141a.313.313 0 0 1-.211-.074.315.315 0 0 1-.074-.21v-.446a.27.27 0 0 1 .074-.198.288.288 0 0 1 .211-.087h2.079c.569 0 1.007-.181 1.312-.545.313-.37.487-.887.52-1.547.008-.123.012-.264.012-.42 0-.166-.004-.31-.012-.434-.017-.66-.186-1.171-.508-1.534-.313-.372-.755-.557-1.324-.557h-1.51Zm9.003-.025a.313.313 0 0 1-.21-.074.315.315 0 0 1-.074-.21v-.422a.27.27 0 0 1 .074-.197.287.287 0 0 1 .21-.087h2.686c.71 0 1.296.115 1.758.346.47.223.821.562 1.052 1.015.231.446.346.999.346 1.659v3.762a.289.289 0 0 1-.086.21.27.27 0 0 1-.199.075h-.556a.286.286 0 0 1-.211-.074.315.315 0 0 1-.074-.21V51.02c0-.66-.169-1.172-.508-1.535-.33-.371-.862-.557-1.596-.557h-2.612Zm1.114-.607h.31c.123 0 .214.033.272.1a.25.25 0 0 1 .087.222c-.066.347-.124.66-.174.94a9.6 9.6 0 0 0-.086.842c-.017.273-.025.582-.025.929l.025 3.366a.31.31 0 0 1-.075.21.266.266 0 0 1-.198.075l-1.757-.025a.309.309 0 0 1-.21-.074c-.05-.05-.075-.12-.075-.21V54.3c0-.082.025-.148.075-.198a.283.283 0 0 1 .21-.086l.953.012v-2.624c0-.338.004-.647.012-.928.009-.289.033-.578.075-.866.041-.29.107-.615.198-.978a.562.562 0 0 1 .111-.223c.058-.058.149-.087.272-.087Zm6.562 6.684a.313.313 0 0 1-.211-.074.315.315 0 0 1-.074-.21v-6.498a.27.27 0 0 1 .074-.198.287.287 0 0 1 .211-.087h.582c.09 0 .16.029.21.087a.27.27 0 0 1 .074.197v6.498a.315.315 0 0 1-.074.21.286.286 0 0 1-.21.075h-.582Zm2.686-2.871a.313.313 0 0 1-.21-.075.31.31 0 0 1-.074-.21v-3.627c0-.082.024-.148.074-.197a.287.287 0 0 1 .21-.087h.582a.26.26 0 0 1 .21.087c.05.049.075.115.075.197v3.627a.31.31 0 0 1-.075.21c-.049.05-.119.075-.21.075h-.582Zm5.661 2.87a.27.27 0 0 1-.198-.073.551.551 0 0 1-.087-.21l-.755-3.8a5.875 5.875 0 0 0-.297-1.09c-.107-.297-.255-.52-.445-.668-.182-.157-.433-.235-.755-.235h-.446a.313.313 0 0 1-.21-.074.31.31 0 0 1-.074-.21v-.446c0-.083.024-.149.074-.198a.287.287 0 0 1 .21-.087h.458c.553 0 .999.111 1.337.334.338.215.606.54.804.978.207.437.376.982.508 1.634l.742 3.861a.22.22 0 0 1-.061.21.313.313 0 0 1-.211.075h-.594Zm-1.596-.63a5.229 5.229 0 0 1-.867.482c-.264.108-.54.19-.829.248a.42.42 0 0 1-.21-.025c-.058-.025-.087-.078-.087-.16v-.62c0-.14.087-.243.26-.309.058-.025.165-.062.322-.111.156-.05.326-.112.507-.186.182-.083.338-.165.47-.248a3.33 3.33 0 0 0 .607-.507c.198-.215.363-.433.495-.656.14-.231.21-.433.21-.606l.718-.087a3.022 3.022 0 0 1-.235 1.077 3.95 3.95 0 0 1-.582.99 3.336 3.336 0 0 1-.779.718Zm3.877.63a.31.31 0 0 1-.21-.073.31.31 0 0 1-.075-.21v-6.498c0-.083.025-.149.075-.198a.283.283 0 0 1 .21-.087h.582c.09 0 .161.029.21.087.05.049.074.115.074.197v6.498a.31.31 0 0 1-.074.21c-.049.05-.12.075-.21.075h-.582Zm4.011.112a.22.22 0 0 1-.211-.037.204.204 0 0 1-.099-.185v-.57c0-.074.021-.14.062-.198a.495.495 0 0 1 .211-.136l.482-.186c.322-.132.615-.297.879-.495.272-.206.483-.482.631-.829.157-.346.236-.8.236-1.361 0-.537-.066-.962-.199-1.275a1.162 1.162 0 0 0-.643-.68c-.297-.141-.706-.211-1.225-.211h-.372a.313.313 0 0 1-.21-.075.31.31 0 0 1-.074-.21v-.445c0-.083.024-.149.074-.198a.287.287 0 0 1 .21-.087h.545c.751 0 1.349.107 1.795.322.445.214.763.56.952 1.04.199.47.298 1.088.298 1.856 0 .577-.079 1.077-.236 1.497-.156.421-.371.78-.643 1.077a3.702 3.702 0 0 1-.904.743c-.338.19-.689.346-1.052.47l-.507.173Zm.025-6.163-1.473-.013a.313.313 0 0 1-.211-.074.27.27 0 0 1-.074-.198v-2.166a.27.27 0 0 1 .074-.198.288.288 0 0 1 .211-.087h.52a.25.25 0 0 1 .198.087.25.25 0 0 1 .086.198v1.436h.693l-.024 1.015Zm4.943 6.052a.31.31 0 0 1-.21-.074.31.31 0 0 1-.075-.21v-6.498c0-.083.025-.149.075-.198a.283.283 0 0 1 .21-.087h.582c.09 0 .161.029.21.087.05.049.074.115.074.197v6.498a.31.31 0 0 1-.074.21c-.049.05-.12.075-.21.075h-.582Zm2.377 0a.313.313 0 0 1-.21-.074.31.31 0 0 1-.075-.21V54.3c0-.082.025-.148.075-.198a.287.287 0 0 1 .21-.086h3.49v.755c0 .082-.029.144-.086.185a.354.354 0 0 1-.198.05h-3.206Zm2.735 0a.27.27 0 0 1-.198-.074.535.535 0 0 1-.086-.21l-.235-3.825a8.841 8.841 0 0 0-.099-1.052c-.042-.297-.141-.528-.297-.693-.149-.165-.401-.248-.755-.248h-.508a.31.31 0 0 1-.21-.074.31.31 0 0 1-.075-.21v-.421c0-.083.025-.149.075-.198a.285.285 0 0 1 .21-.087h.52c.47 0 .85.07 1.139.21.288.133.511.33.668.595a3 3 0 0 1 .346.94c.075.355.124.755.149 1.2l.223 3.862a.22.22 0 0 1-.062.21.313.313 0 0 1-.211.075h-.594Zm2.417 0a.313.313 0 0 1-.211-.074.315.315 0 0 1-.074-.21v-.446a.27.27 0 0 1 .074-.198.288.288 0 0 1 .211-.087h1.769c.735 0 1.263-.181 1.585-.545.321-.37.499-.887.532-1.547.008-.181.012-.326.012-.433 0-.107-.004-.247-.012-.42-.025-.66-.202-1.172-.532-1.535-.322-.372-.85-.557-1.585-.557h-1.769a.313.313 0 0 1-.211-.075.315.315 0 0 1-.074-.21v-.445a.27.27 0 0 1 .074-.198.287.287 0 0 1 .211-.087h1.831c.726 0 1.316.124 1.77.371.454.24.792.59 1.015 1.052.231.454.355 1.003.371 1.646a8.426 8.426 0 0 1 0 .928c-.016.636-.14 1.184-.371 1.647a2.346 2.346 0 0 1-1.015 1.064c-.454.24-1.044.359-1.77.359h-1.831Zm9.389.124c-1.106 0-1.902-.264-2.389-.793-.487-.536-.73-1.283-.73-2.24v-3.873a.27.27 0 0 1 .074-.198.287.287 0 0 1 .21-.087h.508a.26.26 0 0 1 .21.087c.05.049.075.115.075.197v3.813c0 .668.169 1.183.507 1.547.338.354.85.532 1.535.532.684 0 1.184-.165 1.497-.495.322-.33.491-.825.508-1.485a2.796 2.796 0 0 0 0-.372v-.903c-.017-.685-.165-1.184-.446-1.498-.272-.313-.631-.47-1.077-.47-.14 0-.301.025-.482.074a1.55 1.55 0 0 0-.458.198.262.262 0 0 1-.235.012.207.207 0 0 1-.124-.198v-.383c0-.083.008-.153.025-.21a.295.295 0 0 1 .136-.174c.165-.099.342-.177.532-.235.19-.066.441-.099.755-.099.536 0 .986.103 1.349.31.363.197.639.507.829.928.19.42.293.96.31 1.62.008.084.012.224.012.422v.606c0 .206-.004.35-.012.433-.017.628-.132 1.164-.347 1.61a2.06 2.06 0 0 1-.99.99c-.446.222-1.04.334-1.782.334Z"/><path fill="#E13B7E" d="M18.524 19.863a18.986 18.986 0 0 0-13.126 5.729 19.015 19.015 0 0 0 0 26.547 18.987 18.987 0 0 0 13.126 5.728V19.863Z"/><path fill="#12284C" d="M10.502 17.699c4.884 0 8.843-3.962 8.843-8.85 0-4.887-3.96-8.849-8.843-8.849-4.884 0-8.843 3.962-8.843 8.85 0 4.887 3.96 8.849 8.843 8.849Z"/><path fill="#097999" d="M21.96 41.22c5.034 0 9.862-2 13.422-5.563a19.004 19.004 0 0 0 0-26.865A18.975 18.975 0 0 0 21.96 3.23V41.22Z"/><path fill="#12284C" d="M50.275 23.276c-.034-1.895.273-3.78.905-5.569a11.442 11.442 0 0 1 2.537-4.06 10.809 10.809 0 0 1 3.957-2.515c1.65-.583 3.391-.867 5.142-.84 1.635-.017 3.257.292 4.77.907a11.763 11.763 0 0 1 3.796 2.474 11.283 11.283 0 0 1 2.537 3.79 13.242 13.242 0 0 1 0 9.579 11.33 11.33 0 0 1-2.452 3.766 11.16 11.16 0 0 1-3.687 2.457 11.841 11.841 0 0 1-4.609.88 10.15 10.15 0 0 1-4.592-.989 8.92 8.92 0 0 1-3.137-2.44v11.867h-5.184l.017-19.307Zm12.186 6.316a7.07 7.07 0 0 0 2.841-.562 6.698 6.698 0 0 0 3.653-3.9c.345-.94.517-1.935.508-2.936a7.951 7.951 0 0 0-.508-2.86 6.5 6.5 0 0 0-1.429-2.298 6.825 6.825 0 0 0-2.224-1.535 7.069 7.069 0 0 0-2.841-.562 7.29 7.29 0 0 0-2.842.537c-.839.341-1.599.85-2.232 1.493a6.703 6.703 0 0 0-1.455 2.273 8.53 8.53 0 0 0 0 5.871c.325.862.81 1.655 1.43 2.34a6.495 6.495 0 0 0 2.206 1.56c.913.392 1.898.59 2.893.579ZM98.766 31.987c-.249.151-.631.362-1.147.632-.62.316-1.269.576-1.937.775-.886.27-1.789.48-2.703.632a18.8 18.8 0 0 1-3.356.27 14.44 14.44 0 0 1-4.776-.767 11.214 11.214 0 0 1-3.884-2.284 10.952 10.952 0 0 1-2.625-3.715 13.63 13.63 0 0 1 0-10.008 11.326 11.326 0 0 1 2.6-3.859 11.815 11.815 0 0 1 3.926-2.527 13.531 13.531 0 0 1 4.963-.843 13.056 13.056 0 0 1 4.198.615c1.12.349 2.166.9 3.084 1.626.8.631 1.445 1.433 1.886 2.347.442.913.669 1.914.664 2.927a6.881 6.881 0 0 1-.595 2.881 5.226 5.226 0 0 1-2.1 2.216 12.531 12.531 0 0 1-4.07 1.45 32.87 32.87 0 0 1-6.483.521h-1.7c-.518 0-1.105 0-1.7-.067.11.74.365 1.452.753 2.094.388.642.9 1.202 1.508 1.646a8.88 8.88 0 0 0 5.421 1.424 12.69 12.69 0 0 0 2.193-.177 11.914 11.914 0 0 0 1.802-.455c.535-.185.985-.362 1.368-.539l.85-.412 1.86 3.597ZM82.722 21.254h3.935a21.141 21.141 0 0 0 4.062-.312 8.11 8.11 0 0 0 2.422-.842c.496-.243.898-.64 1.147-1.13.177-.415.27-.862.272-1.313a2.835 2.835 0 0 0-.336-1.485 2.867 2.867 0 0 0-1.058-1.102 6.46 6.46 0 0 0-3.45-.842 7.073 7.073 0 0 0-2.965.59 6.55 6.55 0 0 0-2.15 1.558 7.266 7.266 0 0 0-1.352 2.25 8.25 8.25 0 0 0-.526 2.628ZM102.807 2.413a2.213 2.213 0 0 1 .72-1.816 3.103 3.103 0 0 1 2.026-.59 5.181 5.181 0 0 1 1.491.202c.452.135.745.236.896.295v32.931h-5.133V2.413ZM132.18 31.98c-.244.153-.613.364-1.126.634a11.32 11.32 0 0 1-1.923.777c-.872.27-1.761.482-2.662.634a18.36 18.36 0 0 1-3.359.27 14.079 14.079 0 0 1-4.719-.769 10.96 10.96 0 0 1-3.762-2.272 10.724 10.724 0 0 1-2.595-3.724 12.603 12.603 0 0 1-.949-5.067c-.021-1.7.293-3.388.923-4.966a11.311 11.311 0 0 1 2.564-3.862 11.215 11.215 0 0 1 3.894-2.497 13.154 13.154 0 0 1 4.896-.845c1.41-.025 2.814.184 4.157.617a9.54 9.54 0 0 1 3.048 1.63 6.978 6.978 0 0 1 2.318 3.765 7.009 7.009 0 0 1-.403 4.41 5.145 5.145 0 0 1-2.074 2.22 12.2 12.2 0 0 1-4.023 1.394 31.98 31.98 0 0 1-6.407.524h-1.68c-.512 0-1.091 0-1.679-.068a5.627 5.627 0 0 0 2.234 3.75 8.67 8.67 0 0 0 5.349 1.427c.726.005 1.451-.054 2.167-.177.604-.103 1.2-.255 1.78-.456.529-.186.982-.363 1.36-.54l.84-.414 1.831 3.606Zm-15.872-10.758h3.88a20.696 20.696 0 0 0 4.022-.313 7.94 7.94 0 0 0 2.394-.844 2.527 2.527 0 0 0 1.125-1.132c.179-.416.27-.864.269-1.317a2.874 2.874 0 0 0-.33-1.49 2.84 2.84 0 0 0-1.048-1.103 6.274 6.274 0 0 0-3.401-.845 6.947 6.947 0 0 0-2.939.591 6.563 6.563 0 0 0-2.124 1.563 7.1 7.1 0 0 0-1.327 2.255 7.892 7.892 0 0 0-.521 2.635ZM174.761 32.035a11.84 11.84 0 0 1-1.352.742c-.59.288-1.202.53-1.829.725-.761.249-1.54.44-2.33.574-.975.157-1.963.23-2.951.219a14.57 14.57 0 0 1-4.796-.767 11.366 11.366 0 0 1-3.929-2.268 10.87 10.87 0 0 1-2.67-3.743 12.543 12.543 0 0 1-.987-5.117c-.03-1.77.296-3.526.961-5.168a10.626 10.626 0 0 1 2.653-3.81 11.364 11.364 0 0 1 3.997-2.336c1.6-.535 3.278-.803 4.967-.792a17.15 17.15 0 0 1 3.818.362c.887.19 1.744.493 2.551.902.565.29 1.05.712 1.412 1.231.276.401.429.872.442 1.357a2.647 2.647 0 0 1-.621 1.686c-.34.438-.731.834-1.165 1.18a8.94 8.94 0 0 0-2.381-1.475 10.29 10.29 0 0 0-6.744-.253 6.284 6.284 0 0 0-2.33 1.383 6.687 6.687 0 0 0-1.556 2.31 8.59 8.59 0 0 0-.57 3.288 8.701 8.701 0 0 0 .596 3.372 6.162 6.162 0 0 0 1.641 2.31 6.818 6.818 0 0 0 2.424 1.332 9.917 9.917 0 0 0 2.976.43 9.373 9.373 0 0 0 3.682-.607c.65-.273 1.283-.583 1.897-.928l2.194 3.861ZM199.033 33.558c-.304.068-.787.136-1.439.213-.652.076-1.415.145-2.295.221-.881.077-1.872.153-2.964.213a62.49 62.49 0 0 1-3.388.085 22.653 22.653 0 0 1-5.801-.613 9.838 9.838 0 0 1-3.557-1.652 5.199 5.199 0 0 1-1.77-2.375 8.18 8.18 0 0 1-.483-2.767 8.853 8.853 0 0 1 .525-3.32 5.465 5.465 0 0 1 1.872-2.376 9.162 9.162 0 0 1 3.387-1.447 23.6 23.6 0 0 1 5.082-.477c1.16 0 2.252.042 3.286.11a45.4 45.4 0 0 1 2.32.213 5.98 5.98 0 0 0-.525-2.656 4.12 4.12 0 0 0-1.431-1.652 5.98 5.98 0 0 0-2.185-.851 16.96 16.96 0 0 0-2.829-.221 12.173 12.173 0 0 0-4.166.587 8.45 8.45 0 0 0-2.067 1.013 5.557 5.557 0 0 1-.753-.851c-.327-.453-.496-1-.483-1.558.005-.444.124-.878.347-1.26.293-.47.709-.85 1.203-1.099a7.892 7.892 0 0 1 2.32-.757c1.221-.2 2.456-.291 3.692-.273a21.257 21.257 0 0 1 4.895.528c1.367.31 2.659.89 3.803 1.703a7.748 7.748 0 0 1 2.481 3.022c.614 1.428.904 2.975.847 4.53l.076 13.767ZM193.884 23.4c-.304-.06-.846-.154-1.693-.273a27.27 27.27 0 0 0-3.761-.187 8.379 8.379 0 0 0-4.505.937 3.296 3.296 0 0 0-1.414 2.954c-.005.52.096 1.036.296 1.515.209.479.55.886.983 1.175a5.72 5.72 0 0 0 1.981.733c1.029.18 2.073.262 3.117.246 1.125.03 2.251-.013 3.37-.127.847-.102 1.364-.188 1.635-.247l-.009-6.726ZM202.78 19.064a8.296 8.296 0 0 1 .546-3.515 8.228 8.228 0 0 1 1.967-2.954c1.675-1.537 4.046-2.297 7.053-2.297a11.548 11.548 0 0 1 4.615.793c.511.168.957.493 1.276.929.318.436.493.962.5 1.504a2.888 2.888 0 0 1-.427 1.495c-.174.344-.41.653-.695.912a12.09 12.09 0 0 0-1.893-.684 9.526 9.526 0 0 0-2.572-.321c-3.507 0-5.263 1.877-5.269 5.632v13.166h-5.135l.034-14.66ZM238.711 2.425a2.24 2.24 0 0 1 .703-1.824 3.072 3.072 0 0 1 2.033-.594 5.255 5.255 0 0 1 1.5.204c.458.135.763.237.915.297v20.574a16.262 16.262 0 0 1-.94 5.795 11.416 11.416 0 0 1-2.542 4.098 10.547 10.547 0 0 1-3.872 2.468 14.172 14.172 0 0 1-4.88.849c-1.69.02-3.368-.288-4.94-.908a11.943 11.943 0 0 1-3.897-2.545 11.35 11.35 0 0 1-2.542-3.827 12.36 12.36 0 0 1-.941-4.836 12.952 12.952 0 0 1 .89-4.861 11.736 11.736 0 0 1 2.466-3.835 11.014 11.014 0 0 1 3.685-2.545c1.47-.59 3.043-.878 4.626-.849 1.608-.035 3.2.317 4.643 1.027a9.186 9.186 0 0 1 3.144 2.486l-.051-11.174Zm0 19.751a8.126 8.126 0 0 0-.526-2.918 7.352 7.352 0 0 0-1.431-2.376 6.628 6.628 0 0 0-2.212-1.578 7.005 7.005 0 0 0-7.922 1.553 6.85 6.85 0 0 0-1.44 2.35 8.655 8.655 0 0 0-.5 2.97c-.009 1 .16 1.994.5 2.935a6.804 6.804 0 0 0 1.44 2.333 6.916 6.916 0 0 0 2.203 1.553 7.11 7.11 0 0 0 2.872.568 7.25 7.25 0 0 0 2.847-.551 6.553 6.553 0 0 0 2.212-1.502 6.845 6.845 0 0 0 1.431-2.325 8.41 8.41 0 0 0 .526-3.012Z"/><path fill="#E13B7E" d="M143.492 28.293a6.427 6.427 0 0 0 6.425-6.43 6.427 6.427 0 0 0-6.425-6.43 6.428 6.428 0 0 0-6.425 6.43 6.428 6.428 0 0 0 6.425 6.43Z"/><path fill="#097999" d="M254.574 28.293a6.428 6.428 0 0 0 6.426-6.43 6.428 6.428 0 0 0-6.426-6.43 6.428 6.428 0 0 0-6.425 6.43 6.428 6.428 0 0 0 6.425 6.43Z"/></svg>